<?xml version="1.0" encoding="UTF-8"?>
<svg width="763px" height="146px" viewBox="0 0 763 146" version="1.1" xmlns="http://www.w3.org/2000/svg" xmlns:xlink="http://www.w3.org/1999/xlink">
    <title>logo-webmotors</title>
    <desc>Created with Sketch.</desc>
    <g id="Page-1" stroke="none" stroke-width="1" fill="none" fill-rule="evenodd">
        <g id="logo-webmotors" transform="translate(-613.000000, -481.000000)">
            <g id="logo">
                <g id="Group" transform="translate(617.000000, 482.000000)">
                    <g>
                        <g id="XMLID_2_" fill="#EC0928">
                            <circle id="Oval" cx="72.55" cy="72.33" r="72.03"></circle>
                        </g>
                        <path d="M112.68,97.2 C112.68,100.59 109.84,103.31 106.42,103.13 C103.21,102.96 100.8,100.08 100.8,96.86 L100.8,81.43 C100.8,79.69 99.39,78.27 97.64,78.27 L81.66,78.27 C79.92,78.27 78.5,79.68 78.5,81.43 L78.5,100.65 C78.5,104.04 75.66,106.76 72.24,106.58 C69.03,106.41 66.62,103.53 66.62,100.31 L66.62,81.42 C66.62,79.68 65.21,78.26 63.46,78.26 L47.48,78.26 C45.74,78.26 44.32,79.67 44.32,81.42 L44.32,97.18 C44.32,100.57 41.48,103.29 38.06,103.11 C34.85,102.94 32.44,100.06 32.44,96.84 L32.44,47.44 C32.44,44.05 35.27,41.33 38.7,41.51 C41.91,41.68 44.32,44.56 44.32,47.78 L44.32,63.21 C44.32,64.95 45.73,66.37 47.48,66.37 L63.46,66.37 C65.2,66.37 66.62,64.96 66.62,63.21 L66.62,44 C66.62,40.61 69.46,37.89 72.88,38.07 C76.09,38.24 78.5,41.12 78.5,44.34 L78.5,63.23 C78.5,64.97 79.91,66.39 81.66,66.39 L97.64,66.39 C99.38,66.39 100.8,64.98 100.8,63.23 L100.8,47.8 C100.8,44.58 103.21,41.7 106.42,41.53 C109.85,41.35 112.68,44.08 112.68,47.46 L112.68,97.2 Z" id="Path" fill="#FFFFFF"></path>
                    </g>
                    <g transform="translate(167.000000, 19.000000)" fill="#171717" fill-rule="nonzero">
                        <g>
                            <g>
                                <path d="M406.8,4.91 L397.92,4.91 C396.18,4.91 394.76,6.32 394.76,8.07 L394.76,23.93 L394.76,38.54 L394.76,63.04 C394.76,78.18 401.28,84.57 420.3,83.11 C421.96,82.98 423.26,81.62 423.26,79.95 L423.26,72.35 C423.26,70.56 421.77,69.14 419.98,69.19 C413.39,69.37 409.95,68.55 409.95,63.04 L409.95,36.7 L420.1,36.7 C421.84,36.7 423.26,35.29 423.26,33.54 L423.26,25.25 C423.26,23.51 421.85,22.09 420.1,22.09 L409.95,22.09 L409.95,8.07 C409.96,6.33 408.54,4.91 406.8,4.91 Z" id="Path"></path>
                                <path d="M355.14,21.53 C337.82,21.53 324.04,35.08 324.04,52.63 C324.04,70.18 337.82,83.73 355.14,83.73 C372.46,83.73 386.36,70.18 386.36,52.63 C386.36,35.08 372.46,21.53 355.14,21.53 Z M355.14,68.88 C346.19,68.88 339.24,62.17 339.24,52.62 C339.24,43.08 346.19,36.36 355.14,36.36 C364.21,36.36 371.16,43.07 371.16,52.62 C371.16,62.17 364.21,68.88 355.14,68.88 Z" id="Shape"></path>
                                <path d="M459.54,21.53 C442.22,21.53 428.44,35.08 428.44,52.63 C428.44,70.18 442.22,83.73 459.54,83.73 C476.86,83.73 490.76,70.18 490.76,52.63 C490.76,35.08 476.86,21.53 459.54,21.53 Z M459.54,68.88 C450.59,68.88 443.64,62.17 443.64,52.62 C443.64,43.08 450.59,36.36 459.54,36.36 C468.61,36.36 475.56,43.07 475.56,52.62 C475.56,62.17 468.61,68.88 459.54,68.88 Z" id="Shape"></path>
                                <path d="M70.7,57.96 C70.7,63.7 65.75,68.31 59.9,67.74 C54.8,67.24 51.06,62.65 51.06,57.52 L51.06,25.25 C51.06,23.51 49.65,22.09 47.9,22.09 L38.61,22.09 C36.87,22.09 35.45,23.5 35.45,25.25 L35.45,57.52 C35.45,62.65 31.71,67.24 26.61,67.74 C20.75,68.31 15.81,63.7 15.81,57.96 L15.81,25.25 C15.81,23.51 14.4,22.09 12.65,22.09 L3.36,22.09 C1.62,22.09 0.2,23.5 0.2,25.25 L0.2,57.16 C0.2,70.56 10.22,82.25 23.58,83.31 C31.23,83.92 38.23,81.1 43.26,76.25 C48.29,81.1 55.29,83.92 62.94,83.31 C76.29,82.25 86.32,70.55 86.32,57.16 L86.32,25.25 C86.32,23.51 84.91,22.09 83.16,22.09 L73.87,22.09 C72.13,22.09 70.71,23.5 70.71,25.25 L70.71,57.96 L70.7,57.96 Z" id="Path"></path>
                                <path d="M293.78,22.09 C286.13,21.48 279.13,24.3 274.1,29.15 C269.07,24.3 262.07,21.48 254.42,22.09 C241.07,23.15 231.04,34.85 231.04,48.24 L231.04,80.15 C231.04,81.89 232.45,83.31 234.2,83.31 L243.49,83.31 C245.23,83.31 246.65,81.9 246.65,80.15 L246.65,47.88 C246.65,42.75 250.39,38.17 255.49,37.67 C261.35,37.1 266.3,41.7 266.3,47.45 L266.3,80.16 C266.3,81.9 267.71,83.32 269.46,83.32 L278.75,83.32 C280.49,83.32 281.91,81.91 281.91,80.16 L281.91,47.89 C281.91,42.76 285.65,38.17 290.75,37.67 C296.61,37.1 301.55,41.71 301.55,47.45 L301.55,80.16 C301.55,81.9 302.96,83.32 304.71,83.32 L314,83.32 C315.74,83.32 317.16,81.91 317.16,80.16 L317.16,48.25 C317.16,34.85 307.14,23.15 293.78,22.09 Z" id="Path"></path>
                                <path d="M553.87,39.91 C553.87,36.73 556.93,35.08 560.7,35.08 C563.76,35.08 566.29,36.19 568.14,38.16 C569.04,39.11 570.62,39.48 571.77,38.86 L579.28,34.84 C581.1,33.87 581.48,31.46 580.12,29.91 C575.35,24.45 568.47,21.53 560.71,21.53 C548.58,21.53 538.33,28.24 538.33,40.26 C538.33,60.99 568.72,56.28 568.72,64.88 C568.72,68.3 565.42,69.94 560.59,69.94 C556.16,69.94 552.82,68.33 550.73,65.47 C549.85,64.26 548.18,63.76 546.86,64.46 L539.03,68.65 C537.37,69.54 536.79,71.59 537.86,73.14 C542.55,80 550.42,83.71 560.6,83.71 C573.2,83.71 584.28,77.59 584.28,64.86 C584.26,43.2 553.87,48.62 553.87,39.91 Z" id="Path"></path>
                                <path d="M193.35,21.53 C187.51,21.53 182.09,23.1 177.45,25.81 L177.45,3.22 C177.45,1.48 176.04,0.06 174.29,0.06 L165.41,0.06 C163.67,0.06 162.25,1.47 162.25,3.22 L162.25,52.82 L162.26,52.82 C162.37,70.27 176.1,83.71 193.35,83.71 C210.67,83.71 224.57,70.16 224.57,52.61 C224.57,35.08 210.67,21.53 193.35,21.53 Z M193.35,68.88 C184.41,68.88 177.48,62.19 177.45,52.67 L177.45,52.58 C177.47,43.06 184.41,36.37 193.35,36.37 C202.42,36.37 209.37,43.08 209.37,52.63 C209.38,62.17 202.43,68.88 193.35,68.88 Z" id="Shape"></path>
                            </g>
                            <path d="M511.29,83.31 L502,83.31 C500.26,83.31 498.84,81.9 498.84,80.15 L498.84,52.29 C498.84,35.61 512.36,22.09 529.04,22.09 L530.32,22.09 C532.06,22.09 533.48,23.5 533.48,25.25 L533.48,34.54 C533.48,36.28 532.07,37.7 530.32,37.7 L529.03,37.7 C520.97,37.7 514.44,44.23 514.44,52.29 L514.44,80.15 C514.45,81.9 513.04,83.31 511.29,83.31 Z" id="Path"></path>
                        </g>
                        <path d="M139.44,63.49 C138.18,62.82 136.65,63.09 135.66,64.12 C132.79,67.11 128.75,68.88 124.12,68.88 C117.73,68.88 112.37,65.45 109.83,60.02 C109.12,58.52 110.17,56.78 111.83,56.78 L151.17,56.78 C153.46,56.78 155.33,54.91 155.33,52.62 L155.33,52.62 C155.33,35.07 141.43,21.52 124.11,21.52 C106.79,21.52 93.01,35.07 93.01,52.62 C93.01,70.17 106.79,83.72 124.11,83.72 C133.91,83.72 142.59,79.37 148.3,72.42 C149.54,70.91 149.02,68.62 147.29,67.69 L139.44,63.49 Z M124.12,36.37 C130.47,36.37 135.76,39.66 138.38,44.9 L109.98,44.9 C112.59,39.66 117.86,36.37 124.12,36.37 Z" id="Shape"></path>
                    </g>
                </g>
            </g>
            <g id="grid">
                <path d="M784,625.72 L784,482.28" id="Path" stroke="#8E8E8E"></path>
                <path d="M799.78,625.72 L799.78,482.28" id="Path" stroke="#8E8E8E"></path>
                <path d="M819.36,625.72 L819.36,482.28" id="Path" stroke="#8E8E8E"></path>
                <path d="M835.14,625.72 L835.14,482.28" id="Path" stroke="#8E8E8E"></path>
                <path d="M854.72,625.72 L854.72,482.28" id="Path" stroke="#8E8E8E"></path>
                <path d="M870.5,625.72 L870.5,482.28" id="Path" stroke="#8E8E8E"></path>
                <path d="M992.79,625.72 L992.79,482.28" id="Path" stroke="#8E8E8E"></path>
                <path d="M1008.57,625.72 L1008.57,482.28" id="Path" stroke="#8E8E8E"></path>
                <path d="M1014.95,625.72 L1014.95,482.28" id="Path" stroke="#8E8E8E"></path>
                <path d="M1030.73,625.72 L1030.73,482.28" id="Path" stroke="#8E8E8E"></path>
                <path d="M1050.22,625.72 L1050.22,482.28" id="Path" stroke="#8E8E8E"></path>
                <path d="M1066,625.72 L1066,482.28" id="Path" stroke="#8E8E8E"></path>
                <path d="M1085.48,625.72 L1085.48,482.28" id="Path" stroke="#8E8E8E"></path>
                <path d="M1101.26,625.72 L1101.26,482.28" id="Path" stroke="#8E8E8E"></path>
                <path d="M1178.77,625.72 L1178.77,482.28" id="Path" stroke="#8E8E8E"></path>
                <path d="M1193.94,625.72 L1193.94,482.28" id="Path" stroke="#8E8E8E"></path>
                <path d="M877.05,625.72 L877.05,482.28" id="Path" stroke="#8E8E8E"></path>
                <path d="M892.83,625.72 L892.83,482.28" id="Path" stroke="#8E8E8E"></path>
                <path d="M923.56,625.72 L923.56,482.28" id="Path" stroke="#8E8E8E"></path>
                <path d="M939.34,625.72 L939.34,482.28" id="Path" stroke="#8E8E8E"></path>
                <path d="M946.1,625.72 L946.1,482.28" id="Path" stroke="#8E8E8E"></path>
                <path d="M961.64,625.72 L961.64,482.28" id="Path" stroke="#8E8E8E"></path>
                <path d="M1154.65,625.72 L1154.65,482.28" id="Path" stroke="#8E8E8E"></path>
                <path d="M1170.43,625.72 L1170.43,482.28" id="Path" stroke="#8E8E8E"></path>
                <path d="M1107.96,625.72 L1107.96,482.28" id="Path" stroke="#8E8E8E"></path>
                <path d="M1123.5,625.72 L1123.5,482.28" id="Path" stroke="#8E8E8E"></path>
                <path d="M1259.06,625.72 L1259.06,482.28" id="Path" stroke="#8E8E8E"></path>
                <path d="M1274.84,625.72 L1274.84,482.28" id="Path" stroke="#8E8E8E"></path>
                <path d="M1282.64,625.72 L1282.64,482.28" id="Path" stroke="#8E8E8E"></path>
                <path d="M1298.42,625.72 L1298.42,482.28" id="Path" stroke="#8E8E8E"></path>
                <path d="M1322.51,625.72 L1322.51,482.28" id="Path" stroke="#8E8E8E"></path>
                <path d="M1338.29,625.72 L1338.29,482.28" id="Path" stroke="#8E8E8E"></path>
                <path d="M1352.48,625.72 L1352.48,482.28" id="Path" stroke="#8E8E8E"></path>
                <path d="M1368.26,625.72 L1368.26,482.28" id="Path" stroke="#8E8E8E"></path>
                <path d="M1212.37,625.72 L1212.37,482.28" id="Path" stroke="#8E8E8E"></path>
                <path d="M1227.91,625.72 L1227.91,482.28" id="Path" stroke="#8E8E8E"></path>
                <path d="M672.32,525.91 C677.91,525.91 682.45,530.46 682.45,536.04 C682.45,541.62 677.9,546.17 672.32,546.17 C666.74,546.17 662.19,541.62 662.19,536.04 C662.19,530.46 666.73,525.91 672.32,525.91 L672.32,525.91 Z M672.32,524.91 C666.17,524.91 661.19,529.89 661.19,536.04 C661.19,542.19 666.17,547.17 672.32,547.17 C678.47,547.17 683.45,542.19 683.45,536.04 C683.45,529.89 678.47,524.91 672.32,524.91 L672.32,524.91 Z" id="Shape" fill="#8B14F2" fill-rule="nonzero"></path>
                <path d="M772.52,543.87 C778.11,543.87 782.65,548.42 782.65,554 C782.65,559.58 778.1,564.13 772.52,564.13 C766.94,564.13 762.39,559.58 762.39,554 C762.39,548.42 766.93,543.87 772.52,543.87 L772.52,543.87 Z M772.52,542.87 C766.37,542.87 761.39,547.85 761.39,554 C761.39,560.15 766.37,565.13 772.52,565.13 C778.67,565.13 783.65,560.15 783.65,554 C783.65,547.85 778.67,542.87 772.52,542.87 L772.52,542.87 Z" id="Shape" fill="#8B14F2" fill-rule="nonzero"></path>
                <path d="M745.89,538.43 C754.7,538.43 761.1,544.98 761.1,554 C761.1,563.02 754.7,569.58 745.89,569.58 C737.15,569.58 730.8,563.03 730.8,554 C730.8,544.98 737.15,538.43 745.89,538.43 L745.89,538.43 Z M745.89,537.43 C736.83,537.43 729.8,544.28 729.8,554 C729.8,563.73 736.83,570.58 745.89,570.58 C755.07,570.58 762.1,563.73 762.1,554 C762.1,544.27 755.07,537.43 745.89,537.43 L745.89,537.43 Z" id="Shape" fill="#FF8000" fill-rule="nonzero"></path>
                <path d="M613.84,522.43 L1375.7,522.43" id="Path" stroke="#891828"></path>
                <path d="M613.84,584.57 L1375.7,584.57" id="Path" stroke="#891828"></path>
                <g id="Group" transform="translate(617.000000, 481.000000)" stroke="#000000">
                    <g>
                        <g id="XMLID_1_">
                            <circle id="Oval" cx="72.55" cy="73" r="72.03"></circle>
                        </g>
                        <path d="M112.68,97.87 C112.68,101.26 109.84,103.98 106.42,103.8 C103.21,103.63 100.8,100.75 100.8,97.53 L100.8,82.1 C100.8,80.36 99.39,78.94 97.64,78.94 L81.66,78.94 C79.92,78.94 78.5,80.35 78.5,82.1 L78.5,101.32 C78.5,104.71 75.66,107.43 72.24,107.25 C69.03,107.08 66.62,104.2 66.62,100.98 L66.62,82.1 C66.62,80.36 65.21,78.94 63.46,78.94 L47.48,78.94 C45.74,78.94 44.32,80.35 44.32,82.1 L44.32,97.86 C44.32,101.25 41.48,103.97 38.06,103.79 C34.85,103.62 32.44,100.74 32.44,97.52 L32.44,48.12 C32.44,44.73 35.27,42.01 38.7,42.19 C41.91,42.36 44.32,45.24 44.32,48.46 L44.32,63.89 C44.32,65.63 45.73,67.05 47.48,67.05 L63.46,67.05 C65.2,67.05 66.62,65.64 66.62,63.89 L66.62,44.67 C66.62,41.28 69.46,38.56 72.88,38.74 C76.09,38.91 78.5,41.79 78.5,45.01 L78.5,63.9 C78.5,65.64 79.91,67.06 81.66,67.06 L97.64,67.06 C99.38,67.06 100.8,65.65 100.8,63.9 L100.8,48.47 C100.8,45.25 103.21,42.37 106.42,42.2 C109.85,42.02 112.68,44.75 112.68,48.13 L112.68,97.87 Z" id="Path"></path>
                    </g>
                    <g transform="translate(167.000000, 19.000000)">
                        <g>
                            <g>
                                <path d="M406.8,5.58 L397.92,5.58 C396.18,5.58 394.76,6.99 394.76,8.74 L394.76,24.6 L394.76,39.21 L394.76,63.71 C394.76,78.85 401.28,85.24 420.3,83.78 C421.96,83.65 423.26,82.29 423.26,80.62 L423.26,73.02 C423.26,71.23 421.77,69.81 419.98,69.86 C413.39,70.04 409.95,69.22 409.95,63.71 L409.95,37.37 L420.1,37.37 C421.84,37.37 423.26,35.96 423.26,34.21 L423.26,25.92 C423.26,24.18 421.85,22.76 420.1,22.76 L409.95,22.76 L409.95,8.74 C409.96,7 408.54,5.58 406.8,5.58 Z" id="Path"></path>
                                <path d="M355.14,22.2 C337.82,22.2 324.04,35.75 324.04,53.3 C324.04,70.85 337.82,84.4 355.14,84.4 C372.46,84.4 386.36,70.85 386.36,53.3 C386.36,35.75 372.46,22.2 355.14,22.2 Z M355.14,69.55 C346.19,69.55 339.24,62.84 339.24,53.29 C339.24,43.75 346.19,37.03 355.14,37.03 C364.21,37.03 371.16,43.74 371.16,53.29 C371.16,62.84 364.21,69.55 355.14,69.55 Z" id="Shape"></path>
                                <path d="M459.54,22.2 C442.22,22.2 428.44,35.75 428.44,53.3 C428.44,70.85 442.22,84.4 459.54,84.4 C476.86,84.4 490.76,70.85 490.76,53.3 C490.76,35.75 476.86,22.2 459.54,22.2 Z M459.54,69.55 C450.59,69.55 443.64,62.84 443.64,53.29 C443.64,43.75 450.59,37.03 459.54,37.03 C468.61,37.03 475.56,43.74 475.56,53.29 C475.56,62.84 468.61,69.55 459.54,69.55 Z" id="Shape"></path>
                                <path d="M70.7,58.63 C70.7,64.37 65.75,68.98 59.9,68.41 C54.8,67.91 51.06,63.32 51.06,58.19 L51.06,25.92 C51.06,24.18 49.65,22.76 47.9,22.76 L38.61,22.76 C36.87,22.76 35.45,24.17 35.45,25.92 L35.45,58.19 C35.45,63.32 31.71,67.91 26.61,68.41 C20.75,68.98 15.81,64.37 15.81,58.63 L15.81,25.92 C15.81,24.18 14.4,22.76 12.65,22.76 L3.36,22.76 C1.62,22.76 0.2,24.17 0.2,25.92 L0.2,57.83 C0.2,71.23 10.22,82.92 23.58,83.98 C31.23,84.59 38.23,81.77 43.26,76.92 C48.29,81.77 55.29,84.59 62.94,83.98 C76.29,82.92 86.32,71.22 86.32,57.83 L86.32,25.92 C86.32,24.18 84.91,22.76 83.16,22.76 L73.87,22.76 C72.13,22.76 70.71,24.17 70.71,25.92 L70.71,58.63 L70.7,58.63 Z" id="Path"></path>
                                <path d="M293.78,22.76 C286.13,22.15 279.13,24.97 274.1,29.82 C269.07,24.97 262.07,22.15 254.42,22.76 C241.07,23.82 231.04,35.52 231.04,48.91 L231.04,80.82 C231.04,82.56 232.45,83.98 234.2,83.98 L243.49,83.98 C245.23,83.98 246.65,82.57 246.65,80.82 L246.65,48.55 C246.65,43.42 250.39,38.84 255.49,38.34 C261.35,37.77 266.3,42.37 266.3,48.12 L266.3,80.83 C266.3,82.57 267.71,83.99 269.46,83.99 L278.75,83.99 C280.49,83.99 281.91,82.58 281.91,80.83 L281.91,48.56 C281.91,43.43 285.65,38.84 290.75,38.34 C296.61,37.77 301.55,42.38 301.55,48.12 L301.55,80.83 C301.55,82.57 302.96,83.99 304.71,83.99 L314,83.99 C315.74,83.99 317.16,82.58 317.16,80.83 L317.16,48.92 C317.16,35.52 307.14,23.82 293.78,22.76 Z" id="Path"></path>
                                <path d="M553.87,40.58 C553.87,37.4 556.93,35.75 560.7,35.75 C563.76,35.75 566.29,36.86 568.14,38.83 C569.04,39.78 570.62,40.15 571.77,39.53 L579.28,35.51 C581.1,34.54 581.48,32.13 580.12,30.58 C575.35,25.12 568.47,22.2 560.71,22.2 C548.58,22.2 538.33,28.91 538.33,40.93 C538.33,61.66 568.72,56.95 568.72,65.55 C568.72,68.97 565.42,70.61 560.59,70.61 C556.16,70.61 552.82,69 550.73,66.14 C549.85,64.93 548.18,64.43 546.86,65.13 L539.03,69.32 C537.37,70.21 536.79,72.26 537.86,73.81 C542.55,80.67 550.42,84.38 560.6,84.38 C573.2,84.38 584.28,78.26 584.28,65.53 C584.26,43.87 553.87,49.29 553.87,40.58 Z" id="Path"></path>
                                <path d="M193.35,22.2 C187.51,22.2 182.09,23.77 177.45,26.48 L177.45,3.9 C177.45,2.16 176.04,0.74 174.29,0.74 L165.41,0.74 C163.67,0.74 162.25,2.15 162.25,3.9 L162.25,53.5 L162.26,53.5 C162.37,70.95 176.1,84.39 193.35,84.39 C210.67,84.39 224.57,70.84 224.57,53.29 C224.57,35.75 210.67,22.2 193.35,22.2 Z M193.35,69.55 C184.41,69.55 177.48,62.86 177.45,53.34 L177.45,53.25 C177.47,43.73 184.41,37.04 193.35,37.04 C202.42,37.04 209.37,43.75 209.37,53.3 C209.38,62.84 202.43,69.55 193.35,69.55 Z" id="Shape"></path>
                            </g>
                            <path d="M511.29,83.98 L502,83.98 C500.26,83.98 498.84,82.57 498.84,80.82 L498.84,52.96 C498.84,36.28 512.36,22.76 529.04,22.76 L530.32,22.76 C532.06,22.76 533.48,24.17 533.48,25.92 L533.48,35.21 C533.48,36.95 532.07,38.37 530.32,38.37 L529.03,38.37 C520.97,38.37 514.44,44.9 514.44,52.96 L514.44,80.82 C514.45,82.57 513.04,83.98 511.29,83.98 Z" id="Path"></path>
                        </g>
                        <path d="M139.44,64.16 C138.18,63.49 136.65,63.76 135.66,64.79 C132.79,67.78 128.75,69.55 124.12,69.55 C117.73,69.55 112.37,66.12 109.83,60.69 C109.12,59.19 110.17,57.45 111.83,57.45 L151.17,57.45 C153.46,57.45 155.33,55.58 155.33,53.29 L155.33,53.29 C155.33,35.74 141.43,22.19 124.11,22.19 C106.79,22.19 93.01,35.74 93.01,53.29 C93.01,70.84 106.79,84.39 124.11,84.39 C133.91,84.39 142.59,80.04 148.3,73.09 C149.54,71.58 149.02,69.29 147.29,68.36 L139.44,64.16 Z M124.12,37.04 C130.47,37.04 135.76,40.33 138.38,45.57 L109.98,45.57 C112.59,40.33 117.86,37.04 124.12,37.04 Z" id="Shape"></path>
                    </g>
                </g>
                <path d="M698.86,542.54 C700.09,542.54 701.1,543.54 701.1,544.78 C701.1,546.02 700.1,547.02 698.86,547.02 C697.62,547.02 696.62,546.02 696.62,544.78 C696.62,543.54 697.63,542.54 698.86,542.54 L698.86,542.54 Z M698.86,541.54 C697.07,541.54 695.62,542.99 695.62,544.78 C695.62,546.57 697.07,548.02 698.86,548.02 C700.65,548.02 702.1,546.57 702.1,544.78 C702.1,542.99 700.65,541.54 698.86,541.54 L698.86,541.54 Z" id="Shape" fill="#F3123C" fill-rule="nonzero"></path>
                <path d="M714.68,542.54 C715.91,542.54 716.92,543.54 716.92,544.78 C716.92,546.02 715.92,547.02 714.68,547.02 C713.45,547.02 712.44,546.02 712.44,544.78 C712.44,543.54 713.44,542.54 714.68,542.54 L714.68,542.54 Z M714.68,541.54 C712.89,541.54 711.44,542.99 711.44,544.78 C711.44,546.57 712.89,548.02 714.68,548.02 C716.47,548.02 717.92,546.57 717.92,544.78 C717.92,542.99 716.47,541.54 714.68,541.54 L714.68,541.54 Z" id="Shape" fill="#F3123C" fill-rule="nonzero"></path>
                <path d="M787.43,523.76 C788.66,523.76 789.67,524.76 789.67,526 C789.67,527.23 788.67,528.24 787.43,528.24 C786.19,528.24 785.19,527.24 785.19,526 C785.2,524.77 786.2,523.76 787.43,523.76 L787.43,523.76 Z M787.43,522.76 C785.64,522.76 784.19,524.21 784.19,526 C784.19,527.79 785.64,529.24 787.43,529.24 C789.22,529.24 790.67,527.79 790.67,526 C790.67,524.21 789.22,522.76 787.43,522.76 L787.43,522.76 Z" id="Shape" fill="#F3123C" fill-rule="nonzero"></path>
                <path d="M796.54,523.76 C797.77,523.76 798.78,524.76 798.78,526 C798.78,527.23 797.78,528.24 796.54,528.24 C795.3,528.24 794.3,527.24 794.3,526 C794.31,524.77 795.31,523.76 796.54,523.76 L796.54,523.76 Z M796.54,522.76 C794.75,522.76 793.3,524.21 793.3,526 C793.3,527.79 794.75,529.24 796.54,529.24 C798.33,529.24 799.78,527.79 799.78,526 C799.78,524.21 798.33,522.76 796.54,522.76 L796.54,522.76 Z" id="Shape" fill="#F3123C" fill-rule="nonzero"></path>
                <path d="M822.7,523.76 C823.93,523.76 824.94,524.76 824.94,526 C824.94,527.23 823.94,528.24 822.7,528.24 C821.46,528.24 820.46,527.24 820.46,526 C820.46,524.77 821.46,523.76 822.7,523.76 L822.7,523.76 Z M822.7,522.76 C820.91,522.76 819.46,524.21 819.46,526 C819.46,527.79 820.91,529.24 822.7,529.24 C824.49,529.24 825.94,527.79 825.94,526 C825.93,524.21 824.48,522.76 822.7,522.76 L822.7,522.76 Z" id="Shape" fill="#F3123C" fill-rule="nonzero"></path>
                <path d="M831.81,523.76 C833.04,523.76 834.05,524.76 834.05,526 C834.05,527.23 833.05,528.24 831.81,528.24 C830.58,528.24 829.57,527.24 829.57,526 C829.57,524.77 830.57,523.76 831.81,523.76 L831.81,523.76 Z M831.81,522.76 C830.02,522.76 828.57,524.21 828.57,526 C828.57,527.79 830.02,529.24 831.81,529.24 C833.6,529.24 835.05,527.79 835.05,526 C835.04,524.21 833.59,522.76 831.81,522.76 L831.81,522.76 Z" id="Shape" fill="#F3123C" fill-rule="nonzero"></path>
                <path d="M857.96,523.76 C859.19,523.76 860.2,524.76 860.2,526 C860.2,527.23 859.2,528.24 857.96,528.24 C856.73,528.24 855.72,527.24 855.72,526 C855.72,524.77 856.72,523.76 857.96,523.76 L857.96,523.76 Z M857.96,522.76 C856.17,522.76 854.72,524.21 854.72,526 C854.72,527.79 856.17,529.24 857.96,529.24 C859.75,529.24 861.2,527.79 861.2,526 C861.2,524.21 859.75,522.76 857.96,522.76 L857.96,522.76 Z" id="Shape" fill="#F3123C" fill-rule="nonzero"></path>
                <path d="M921.9,564.86 C923.13,564.86 924.14,565.86 924.14,567.1 C924.14,568.34 923.14,569.34 921.9,569.34 C920.66,569.34 919.66,568.34 919.66,567.1 C919.66,565.86 920.67,564.86 921.9,564.86 L921.9,564.86 Z M921.9,563.86 C920.11,563.86 918.66,565.31 918.66,567.1 C918.66,568.89 920.11,570.34 921.9,570.34 C923.69,570.34 925.14,568.89 925.14,567.1 C925.14,565.31 923.69,563.86 921.9,563.86 L921.9,563.86 Z" id="Shape" fill="#F3123C" fill-rule="nonzero"></path>
                <path d="M929.65,568.91 C930.88,568.91 931.89,569.91 931.89,571.15 C931.89,572.39 930.89,573.39 929.65,573.39 C928.41,573.39 927.41,572.39 927.41,571.15 C927.41,569.91 928.41,568.91 929.65,568.91 L929.65,568.91 Z M929.65,567.91 C927.86,567.91 926.41,569.36 926.41,571.15 C926.41,572.94 927.86,574.39 929.65,574.39 C931.44,574.39 932.89,572.94 932.89,571.15 C932.89,569.36 931.44,567.91 929.65,567.91 L929.65,567.91 Z" id="Shape" fill="#F3123C" fill-rule="nonzero"></path>
                <path d="M935.79,551.68 C937.02,551.68 938.03,552.68 938.03,553.92 C938.03,555.15 937.03,556.16 935.79,556.16 C934.55,556.16 933.55,555.16 933.55,553.92 C933.55,552.68 934.55,551.68 935.79,551.68 L935.79,551.68 Z M935.79,550.68 C934,550.68 932.55,552.13 932.55,553.92 C932.55,555.71 934,557.16 935.79,557.16 C937.58,557.16 939.03,555.71 939.03,553.92 C939.03,552.13 937.58,550.68 935.79,550.68 L935.79,550.68 Z" id="Shape" fill="#F3123C" fill-rule="nonzero"></path>
                <path d="M867.07,523.76 C868.3,523.76 869.31,524.76 869.31,526 C869.31,527.23 868.31,528.24 867.07,528.24 C865.83,528.24 864.83,527.24 864.83,526 C864.83,524.77 865.83,523.76 867.07,523.76 L867.07,523.76 Z M867.07,522.76 C865.28,522.76 863.83,524.21 863.83,526 C863.83,527.79 865.28,529.24 867.07,529.24 C868.86,529.24 870.31,527.79 870.31,526 C870.31,524.21 868.86,522.76 867.07,522.76 L867.07,522.76 Z" id="Shape" fill="#F3123C" fill-rule="nonzero"></path>
                <path d="M949.29,501.74 C950.52,501.74 951.53,502.74 951.53,503.98 C951.53,505.21 950.53,506.22 949.29,506.22 C948.06,506.22 947.05,505.22 947.05,503.98 C947.05,502.74 948.06,501.74 949.29,501.74 L949.29,501.74 Z M949.29,500.74 C947.5,500.74 946.05,502.19 946.05,503.98 C946.05,505.77 947.5,507.22 949.29,507.22 C951.08,507.22 952.53,505.77 952.53,503.98 C952.53,502.19 951.08,500.74 949.29,500.74 L949.29,500.74 Z" id="Shape" fill="#F3123C" fill-rule="nonzero"></path>
                <path d="M958.4,501.74 C959.63,501.74 960.64,502.74 960.64,503.98 C960.64,505.21 959.64,506.22 958.4,506.22 C957.16,506.22 956.16,505.22 956.16,503.98 C956.16,502.74 957.17,501.74 958.4,501.74 L958.4,501.74 Z M958.4,500.74 C956.61,500.74 955.16,502.19 955.16,503.98 C955.16,505.77 956.61,507.22 958.4,507.22 C960.19,507.22 961.64,505.77 961.64,503.98 C961.64,502.19 960.19,500.74 958.4,500.74 L958.4,500.74 Z" id="Shape" fill="#F3123C" fill-rule="nonzero"></path>
                <path d="M1018.39,578.5 C1019.62,578.5 1020.63,579.5 1020.63,580.74 C1020.63,581.98 1019.63,582.98 1018.39,582.98 C1017.16,582.98 1016.15,581.98 1016.15,580.74 C1016.15,579.5 1017.15,578.5 1018.39,578.5 L1018.39,578.5 Z M1018.39,577.5 C1016.6,577.5 1015.15,578.95 1015.15,580.74 C1015.15,582.53 1016.6,583.98 1018.39,583.98 C1020.18,583.98 1021.63,582.53 1021.63,580.74 C1021.63,578.95 1020.18,577.5 1018.39,577.5 L1018.39,577.5 Z" id="Shape" fill="#F3123C" fill-rule="nonzero"></path>
                <path d="M1027.5,578.5 C1028.73,578.5 1029.74,579.5 1029.74,580.74 C1029.74,581.98 1028.74,582.98 1027.5,582.98 C1026.26,582.98 1025.26,581.98 1025.26,580.74 C1025.26,579.5 1026.26,578.5 1027.5,578.5 L1027.5,578.5 Z M1027.5,577.5 C1025.71,577.5 1024.26,578.95 1024.26,580.74 C1024.26,582.53 1025.71,583.98 1027.5,583.98 C1029.29,583.98 1030.74,582.53 1030.74,580.74 C1030.74,578.95 1029.29,577.5 1027.5,577.5 L1027.5,577.5 Z" id="Shape" fill="#F3123C" fill-rule="nonzero"></path>
                <path d="M1053.55,578.5 C1054.78,578.5 1055.79,579.5 1055.79,580.74 C1055.79,581.98 1054.79,582.98 1053.55,582.98 C1052.31,582.98 1051.31,581.98 1051.31,580.74 C1051.31,579.5 1052.32,578.5 1053.55,578.5 L1053.55,578.5 Z M1053.55,577.5 C1051.76,577.5 1050.31,578.95 1050.31,580.74 C1050.31,582.53 1051.76,583.98 1053.55,583.98 C1055.34,583.98 1056.79,582.53 1056.79,580.74 C1056.79,578.95 1055.34,577.5 1053.55,577.5 L1053.55,577.5 Z" id="Shape" fill="#F3123C" fill-rule="nonzero"></path>
                <path d="M1062.66,578.5 C1063.89,578.5 1064.9,579.5 1064.9,580.74 C1064.9,581.98 1063.9,582.98 1062.66,582.98 C1061.42,582.98 1060.42,581.98 1060.42,580.74 C1060.42,579.5 1061.43,578.5 1062.66,578.5 L1062.66,578.5 Z M1062.66,577.5 C1060.87,577.5 1059.42,578.95 1059.42,580.74 C1059.42,582.53 1060.87,583.98 1062.66,583.98 C1064.45,583.98 1065.9,582.53 1065.9,580.74 C1065.9,578.95 1064.45,577.5 1062.66,577.5 L1062.66,577.5 Z" id="Shape" fill="#F3123C" fill-rule="nonzero"></path>
                <path d="M1088.72,578.5 C1089.95,578.5 1090.96,579.5 1090.96,580.74 C1090.96,581.98 1089.96,582.98 1088.72,582.98 C1087.48,582.98 1086.48,581.98 1086.48,580.74 C1086.48,579.5 1087.48,578.5 1088.72,578.5 L1088.72,578.5 Z M1088.72,577.5 C1086.93,577.5 1085.48,578.95 1085.48,580.74 C1085.48,582.53 1086.93,583.98 1088.72,583.98 C1090.51,583.98 1091.96,582.53 1091.96,580.74 C1091.96,578.95 1090.5,577.5 1088.72,577.5 L1088.72,577.5 Z" id="Shape" fill="#F3123C" fill-rule="nonzero"></path>
                <path d="M1097.82,578.5 C1099.05,578.5 1100.06,579.5 1100.06,580.74 C1100.06,581.98 1099.06,582.98 1097.82,582.98 C1096.58,582.98 1095.58,581.98 1095.58,580.74 C1095.58,579.5 1096.59,578.5 1097.82,578.5 L1097.82,578.5 Z M1097.82,577.5 C1096.03,577.5 1094.58,578.95 1094.58,580.74 C1094.58,582.53 1096.03,583.98 1097.82,583.98 C1099.61,583.98 1101.06,582.53 1101.06,580.74 C1101.06,578.95 1099.61,577.5 1097.82,577.5 L1097.82,577.5 Z" id="Shape" fill="#F3123C" fill-rule="nonzero"></path>
                <path d="M1181.82,506.58 C1183.05,506.58 1184.06,507.58 1184.06,508.82 C1184.06,510.05 1183.06,511.06 1181.82,511.06 C1180.58,511.06 1179.58,510.06 1179.58,508.82 C1179.59,507.59 1180.59,506.58 1181.82,506.58 L1181.82,506.58 Z M1181.82,505.58 C1180.03,505.58 1178.58,507.03 1178.58,508.82 C1178.58,510.61 1180.03,512.06 1181.82,512.06 C1183.61,512.06 1185.06,510.61 1185.06,508.82 C1185.06,507.03 1183.61,505.58 1181.82,505.58 L1181.82,505.58 Z" id="Shape" fill="#F3123C" fill-rule="nonzero"></path>
                <path d="M1190.93,506.58 C1192.16,506.58 1193.17,507.58 1193.17,508.82 C1193.17,510.05 1192.17,511.06 1190.93,511.06 C1189.69,511.06 1188.69,510.06 1188.69,508.82 C1188.7,507.59 1189.7,506.58 1190.93,506.58 L1190.93,506.58 Z M1190.93,505.58 C1189.14,505.58 1187.69,507.03 1187.69,508.82 C1187.69,510.61 1189.14,512.06 1190.93,512.06 C1192.72,512.06 1194.17,510.61 1194.17,508.82 C1194.17,507.03 1192.72,505.58 1190.93,505.58 L1190.93,505.58 Z" id="Shape" fill="#F3123C" fill-rule="nonzero"></path>
                <path d="M1286.08,578.39 C1287.31,578.39 1288.32,579.39 1288.32,580.63 C1288.32,581.87 1287.32,582.87 1286.08,582.87 C1284.84,582.87 1283.84,581.87 1283.84,580.63 C1283.84,579.39 1284.85,578.39 1286.08,578.39 L1286.08,578.39 Z M1286.08,577.39 C1284.29,577.39 1282.84,578.84 1282.84,580.63 C1282.84,582.42 1284.29,583.87 1286.08,583.87 C1287.87,583.87 1289.32,582.42 1289.32,580.63 C1289.32,578.84 1287.87,577.39 1286.08,577.39 L1286.08,577.39 Z" id="Shape" fill="#F3123C" fill-rule="nonzero"></path>
                <path d="M1295.19,578.39 C1296.42,578.39 1297.43,579.39 1297.43,580.63 C1297.43,581.87 1296.43,582.87 1295.19,582.87 C1293.95,582.87 1292.95,581.87 1292.95,580.63 C1292.95,579.39 1293.96,578.39 1295.19,578.39 L1295.19,578.39 Z M1295.19,577.39 C1293.4,577.39 1291.95,578.84 1291.95,580.63 C1291.95,582.42 1293.4,583.87 1295.19,583.87 C1296.98,583.87 1298.43,582.42 1298.43,580.63 C1298.43,578.84 1296.98,577.39 1295.19,577.39 L1295.19,577.39 Z" id="Shape" fill="#F3123C" fill-rule="nonzero"></path>
                <path d="M1204.03,523.88 C1205.26,523.88 1206.27,524.88 1206.27,526.12 C1206.27,527.36 1205.27,528.36 1204.03,528.36 C1202.8,528.36 1201.79,527.36 1201.79,526.12 C1201.79,524.88 1202.8,523.88 1204.03,523.88 L1204.03,523.88 Z M1204.03,522.88 C1202.24,522.88 1200.79,524.33 1200.79,526.12 C1200.79,527.91 1202.24,529.36 1204.03,529.36 C1205.82,529.36 1207.27,527.91 1207.27,526.12 C1207.27,524.33 1205.82,522.88 1204.03,522.88 L1204.03,522.88 Z" id="Shape" fill="#F3123C" fill-rule="nonzero"></path>
                <path d="M1204.03,531.97 C1205.26,531.97 1206.27,532.97 1206.27,534.21 C1206.27,535.45 1205.27,536.45 1204.03,536.45 C1202.8,536.45 1201.79,535.45 1201.79,534.21 C1201.79,532.97 1202.8,531.97 1204.03,531.97 L1204.03,531.97 Z M1204.03,530.97 C1202.24,530.97 1200.79,532.42 1200.79,534.21 C1200.79,536 1202.24,537.45 1204.03,537.45 C1205.82,537.45 1207.27,536 1207.27,534.21 C1207.27,532.42 1205.82,530.97 1204.03,530.97 L1204.03,530.97 Z" id="Shape" fill="#F3123C" fill-rule="nonzero"></path>
                <path d="M1314.25,523.88 C1315.48,523.88 1316.49,524.88 1316.49,526.12 C1316.49,527.36 1315.49,528.36 1314.25,528.36 C1313.01,528.36 1312.01,527.36 1312.01,526.12 C1312.01,524.88 1313.02,523.88 1314.25,523.88 L1314.25,523.88 Z M1314.25,522.88 C1312.46,522.88 1311.01,524.33 1311.01,526.12 C1311.01,527.91 1312.46,529.36 1314.25,529.36 C1316.04,529.36 1317.49,527.91 1317.49,526.12 C1317.49,524.33 1316.04,522.88 1314.25,522.88 L1314.25,522.88 Z" id="Shape" fill="#F3123C" fill-rule="nonzero"></path>
                <path d="M1314.25,532.88 C1315.48,532.88 1316.49,533.88 1316.49,535.12 C1316.49,536.36 1315.49,537.36 1314.25,537.36 C1313.01,537.36 1312.01,536.36 1312.01,535.12 C1312.01,533.88 1313.02,532.88 1314.25,532.88 L1314.25,532.88 Z M1314.25,531.88 C1312.46,531.88 1311.01,533.33 1311.01,535.12 C1311.01,536.91 1312.46,538.36 1314.25,538.36 C1316.04,538.36 1317.49,536.91 1317.49,535.12 C1317.49,533.33 1316.04,531.88 1314.25,531.88 L1314.25,531.88 Z" id="Shape" fill="#F3123C" fill-rule="nonzero"></path>
                <path d="M1354.33,534.36 C1355.56,534.36 1356.57,535.36 1356.57,536.6 C1356.57,537.83 1355.57,538.84 1354.33,538.84 C1353.1,538.84 1352.09,537.84 1352.09,536.6 C1352.09,535.37 1353.09,534.36 1354.33,534.36 L1354.33,534.36 Z M1354.33,533.36 C1352.54,533.36 1351.09,534.81 1351.09,536.6 C1351.09,538.39 1352.54,539.84 1354.33,539.84 C1356.12,539.84 1357.57,538.39 1357.57,536.6 C1357.56,534.81 1356.11,533.36 1354.33,533.36 L1354.33,533.36 Z" id="Shape" fill="#F3123C" fill-rule="nonzero"></path>
                <path d="M1332.14,565.76 C1333.37,565.76 1334.38,566.76 1334.38,568 C1334.38,569.24 1333.38,570.24 1332.14,570.24 C1330.9,570.24 1329.9,569.24 1329.9,568 C1329.9,566.76 1330.91,565.76 1332.14,565.76 L1332.14,565.76 Z M1332.14,564.76 C1330.35,564.76 1328.9,566.21 1328.9,568 C1328.9,569.79 1330.35,571.24 1332.14,571.24 C1333.93,571.24 1335.38,569.79 1335.38,568 C1335.38,566.21 1333.93,564.76 1332.14,564.76 L1332.14,564.76 Z" id="Shape" fill="#F3123C" fill-rule="nonzero"></path>
                <path d="M1361.65,530.35 C1362.88,530.35 1363.89,531.35 1363.89,532.59 C1363.89,533.83 1362.89,534.83 1361.65,534.83 C1360.41,534.83 1359.41,533.83 1359.41,532.59 C1359.41,531.35 1360.42,530.35 1361.65,530.35 L1361.65,530.35 Z M1361.65,529.35 C1359.86,529.35 1358.41,530.8 1358.41,532.59 C1358.41,534.38 1359.86,535.83 1361.65,535.83 C1363.44,535.83 1364.89,534.38 1364.89,532.59 C1364.89,530.8 1363.44,529.35 1361.65,529.35 L1361.65,529.35 Z" id="Shape" fill="#F3123C" fill-rule="nonzero"></path>
                <path d="M1324.55,569.91 C1325.78,569.91 1326.79,570.91 1326.79,572.15 C1326.79,573.39 1325.79,574.39 1324.55,574.39 C1323.31,574.39 1322.31,573.39 1322.31,572.15 C1322.31,570.91 1323.32,569.91 1324.55,569.91 L1324.55,569.91 Z M1324.55,568.91 C1322.76,568.91 1321.31,570.36 1321.31,572.15 C1321.31,573.94 1322.76,575.39 1324.55,575.39 C1326.34,575.39 1327.79,573.94 1327.79,572.15 C1327.79,570.36 1326.34,568.91 1324.55,568.91 L1324.55,568.91 Z" id="Shape" fill="#F3123C" fill-rule="nonzero"></path>
                <path d="M1204.03,571.25 C1205.26,571.25 1206.27,572.25 1206.27,573.49 C1206.27,574.73 1205.27,575.73 1204.03,575.73 C1202.8,575.73 1201.79,574.73 1201.79,573.49 C1201.79,572.25 1202.8,571.25 1204.03,571.25 L1204.03,571.25 Z M1204.03,570.25 C1202.24,570.25 1200.79,571.7 1200.79,573.49 C1200.79,575.28 1202.24,576.73 1204.03,576.73 C1205.82,576.73 1207.27,575.28 1207.27,573.49 C1207.27,571.7 1205.82,570.25 1204.03,570.25 L1204.03,570.25 Z" id="Shape" fill="#F3123C" fill-rule="nonzero"></path>
                <path d="M1204.03,578.05 C1205.26,578.05 1206.27,579.05 1206.27,580.29 C1206.27,581.53 1205.27,582.53 1204.03,582.53 C1202.8,582.53 1201.79,581.53 1201.79,580.29 C1201.79,579.05 1202.8,578.05 1204.03,578.05 L1204.03,578.05 Z M1204.03,577.05 C1202.24,577.05 1200.79,578.5 1200.79,580.29 C1200.79,582.08 1202.24,583.53 1204.03,583.53 C1205.82,583.53 1207.27,582.08 1207.27,580.29 C1207.27,578.5 1205.82,577.05 1204.03,577.05 L1204.03,577.05 Z" id="Shape" fill="#F3123C" fill-rule="nonzero"></path>
                <path d="M698.86,561.01 C700.09,561.01 701.1,562.01 701.1,563.25 C701.1,564.48 700.1,565.49 698.86,565.49 C697.62,565.49 696.62,564.49 696.62,563.25 C696.63,562.02 697.63,561.01 698.86,561.01 L698.86,561.01 Z M698.86,560.01 C697.07,560.01 695.62,561.46 695.62,563.25 C695.62,565.04 697.07,566.49 698.86,566.49 C700.65,566.49 702.1,565.04 702.1,563.25 C702.1,561.46 700.65,560.01 698.86,560.01 L698.86,560.01 Z" id="Shape" fill="#F3123C" fill-rule="nonzero"></path>
                <path d="M714.68,561.01 C715.91,561.01 716.92,562.01 716.92,563.25 C716.92,564.48 715.92,565.49 714.68,565.49 C713.45,565.49 712.44,564.49 712.44,563.25 C712.44,562.02 713.44,561.01 714.68,561.01 L714.68,561.01 Z M714.68,560.01 C712.89,560.01 711.44,561.46 711.44,563.25 C711.44,565.04 712.89,566.49 714.68,566.49 C716.47,566.49 717.92,565.04 717.92,563.25 C717.92,561.46 716.47,560.01 714.68,560.01 L714.68,560.01 Z" id="Shape" fill="#F3123C" fill-rule="nonzero"></path>
                <path d="M664.56,561.01 C665.79,561.01 666.8,562.01 666.8,563.25 C666.8,564.48 665.8,565.49 664.56,565.49 C663.32,565.49 662.32,564.49 662.32,563.25 C662.32,562.02 663.33,561.01 664.56,561.01 L664.56,561.01 Z M664.56,560.01 C662.77,560.01 661.32,561.46 661.32,563.25 C661.32,565.04 662.77,566.49 664.56,566.49 C666.35,566.49 667.8,565.04 667.8,563.25 C667.8,561.46 666.35,560.01 664.56,560.01 L664.56,560.01 Z" id="Shape" fill="#F3123C" fill-rule="nonzero"></path>
                <path d="M680.37,561.01 C681.6,561.01 682.61,562.01 682.61,563.25 C682.61,564.48 681.61,565.49 680.37,565.49 C679.13,565.49 678.13,564.49 678.13,563.25 C678.14,562.02 679.14,561.01 680.37,561.01 L680.37,561.01 Z M680.37,560.01 C678.58,560.01 677.13,561.46 677.13,563.25 C677.13,565.04 678.58,566.49 680.37,566.49 C682.16,566.49 683.61,565.04 683.61,563.25 C683.61,561.46 682.16,560.01 680.37,560.01 L680.37,560.01 Z" id="Shape" fill="#F3123C" fill-rule="nonzero"></path>
                <path d="M664.56,542.54 C665.79,542.54 666.8,543.54 666.8,544.78 C666.8,546.02 665.8,547.02 664.56,547.02 C663.32,547.02 662.32,546.02 662.32,544.78 C662.32,543.54 663.33,542.54 664.56,542.54 L664.56,542.54 Z M664.56,541.54 C662.77,541.54 661.32,542.99 661.32,544.78 C661.32,546.57 662.77,548.02 664.56,548.02 C666.35,548.02 667.8,546.57 667.8,544.78 C667.8,542.99 666.35,541.54 664.56,541.54 L664.56,541.54 Z" id="Shape" fill="#F3123C" fill-rule="nonzero"></path>
                <path d="M680.37,542.54 C681.6,542.54 682.61,543.54 682.61,544.78 C682.61,546.02 681.61,547.02 680.37,547.02 C679.13,547.02 678.13,546.02 678.13,544.78 C678.13,543.54 679.14,542.54 680.37,542.54 L680.37,542.54 Z M680.37,541.54 C678.58,541.54 677.13,542.99 677.13,544.78 C677.13,546.57 678.58,548.02 680.37,548.02 C682.16,548.02 683.61,546.57 683.61,544.78 C683.61,542.99 682.16,541.54 680.37,541.54 L680.37,541.54 Z" id="Shape" fill="#F3123C" fill-rule="nonzero"></path>
                <path d="M977.36,537.76 C986.17,537.76 992.57,544.31 992.57,553.33 C992.57,562.35 986.17,568.91 977.36,568.91 C968.62,568.91 962.27,562.36 962.27,553.33 C962.27,544.31 968.61,537.76 977.36,537.76 L977.36,537.76 Z M977.36,536.76 C968.3,536.76 961.27,543.61 961.27,553.33 C961.27,563.06 968.3,569.91 977.36,569.91 C986.54,569.91 993.57,563.06 993.57,553.33 C993.56,543.6 986.53,536.76 977.36,536.76 L977.36,536.76 Z" id="Shape" fill="#FF8000" fill-rule="nonzero"></path>
                <path d="M1139.14,537.76 C1147.95,537.76 1154.35,544.31 1154.35,553.33 C1154.35,562.35 1147.95,568.91 1139.14,568.91 C1130.4,568.91 1124.05,562.36 1124.05,553.33 C1124.05,544.31 1130.4,537.76 1139.14,537.76 L1139.14,537.76 Z M1139.14,536.76 C1130.08,536.76 1123.05,543.61 1123.05,553.33 C1123.05,563.06 1130.08,569.91 1139.14,569.91 C1148.32,569.91 1155.35,563.06 1155.35,553.33 C1155.35,543.6 1148.32,536.76 1139.14,536.76 L1139.14,536.76 Z" id="Shape" fill="#FF8000" fill-rule="nonzero"></path>
                <path d="M1243.54,537.76 C1252.35,537.76 1258.75,544.31 1258.75,553.33 C1258.75,562.35 1252.35,568.91 1243.54,568.91 C1234.8,568.91 1228.45,562.36 1228.45,553.33 C1228.45,544.31 1234.8,537.76 1243.54,537.76 L1243.54,537.76 Z M1243.54,536.76 C1234.48,536.76 1227.45,543.61 1227.45,553.33 C1227.45,563.06 1234.48,569.91 1243.54,569.91 C1252.72,569.91 1259.75,563.06 1259.75,553.33 C1259.75,543.6 1252.72,536.76 1243.54,536.76 L1243.54,536.76 Z" id="Shape" fill="#FF8000" fill-rule="nonzero"></path>
                <path d="M1314.19,538.76 C1323,538.76 1329.4,545.31 1329.4,554.33 C1329.4,563.35 1323,569.91 1314.19,569.91 C1305.45,569.91 1299.1,563.36 1299.1,554.33 C1299.1,545.31 1305.45,538.76 1314.19,538.76 L1314.19,538.76 Z M1314.19,537.76 C1305.13,537.76 1298.1,544.61 1298.1,554.33 C1298.1,564.06 1305.13,570.91 1314.19,570.91 C1323.37,570.91 1330.4,564.06 1330.4,554.33 C1330.4,544.6 1323.37,537.76 1314.19,537.76 L1314.19,537.76 Z" id="Shape" fill="#FF8000" fill-rule="nonzero"></path>
                <path d="M908.12,538.34 C916.93,538.34 923.33,544.89 923.33,553.91 C923.33,562.93 916.93,569.49 908.12,569.49 C899.38,569.49 893.03,562.94 893.03,553.91 C893.03,544.89 899.38,538.34 908.12,538.34 L908.12,538.34 Z M908.12,537.34 C899.06,537.34 892.03,544.19 892.03,553.91 C892.03,563.64 899.06,570.49 908.12,570.49 C917.3,570.49 924.33,563.64 924.33,553.91 C924.33,544.19 917.3,537.34 908.12,537.34 L908.12,537.34 Z" id="Shape" fill="#FF8000" fill-rule="nonzero"></path>
                <circle id="Oval" stroke="#F3123C" cx="907.96" cy="553.61" r="31.16"></circle>
                <circle id="Oval" stroke="#F3123C" cx="977.41" cy="553.61" r="31.16"></circle>
                <circle id="Oval" stroke="#F3123C" cx="1139.2" cy="553.61" r="31.16"></circle>
                <circle id="Oval" stroke="#F3123C" cx="1243.23" cy="553.61" r="31.16"></circle>
                <circle id="Oval" stroke="#F3123C" cx="1313.53" cy="553.61" r="31.16"></circle>
            </g>
        </g>
    </g>
    <style>
        #grid {
            opacity: 0;
            animation: showandhide 5s ease-out forwards infinite;
        }
        @keyframes showandhide {
            0% {
                opacity: 0
            }
            45% {
                opacity: 0
            }
            50% {
                opacity: 1
            }
            95% {
                opacity: 1
            }
            100% {
                opacity: 0
            }
        }
        
        #logo {
            opacity: 1;
            animation: showandhidelogo 5s ease-out forwards infinite;
        }
        @keyframes showandhidelogo {
            0% {
                opacity: 1
            }
            40% {
                opacity: 1
            }
            45% {
                opacity: 0
            }
            70% {
                opacity: 0
            }
            100% {
                opacity: 1
            }
        }

    </style>
</svg>